<svg width="478" height="479" viewBox="0 0 478 479" fill="none" xmlns="http://www.w3.org/2000/svg">
<path d="M217.392 473.173C217.392 473.173 503.557 484.105 355.407 321.729C319.044 281.874 263.224 279.532 304.32 157.147C345.417 34.7618 170.196 -63.1317 142.848 63.0797C115.499 189.291 30.6025 208.691 9.35118 342.723C-11.9001 476.755 217.392 473.173 217.392 473.173Z" fill="#FF45E9"/>
<path d="M456.37 179.509C439.621 136.508 391.532 111.118 354.009 151.925C316.486 192.731 349.671 240.529 349.671 240.529C371.094 281.832 423.571 285.559 445.962 266.477C468.353 247.395 473.119 222.509 456.37 179.509Z" fill="#FF45E9"/>
</svg>
